# AST/ASF file generated using VICON BodyLanguage
# -----------------------------------------------
:version 1.10
:name VICON
:units
  mass 1.0
  length 0.45
  angle deg
:documentation
   .ast/.asf automatically generated from VICON data using
   VICON BodyBuilder and BodyLanguage model FoxedUp or BRILLIANT.MOD
:root
   order TX TY TZ RX RY RZ
   axis XYZ
   position 0 0 0  
   orientation 0 0 0 
:bonedata
  begin
     id 1 
     name lhipjoint
     direction 0.575328 -0.747301 0.332475 
     length 2.40933 
     axis 0 0 0  XYZ
  end
  begin
     id 2 
     name lfemur
     direction 0.34202 -0.939693 0  
     length 7.31453  
     axis 0 0 20  XYZ
    dof rx ry rz
    limits (-160.0 20.0)
           (-70.0 70.0)
           (-60.0 70.0)
  end
  begin
     id 3 
     name ltibia
     direction 0.34202 -0.939693 0   
     length 7.82185   
     axis 0 0 20   XYZ
    dof rx
    limits (-10.0 170.0)
  end
  begin
     id 4 
     name lfoot
     direction 0.0795993 -0.218697 0.972541   
     length 2.19173   
     axis -90 7.62852e-016 20   XYZ
    dof rx rz
    limits (-45.0 90.0)
           (-70.0 20.0)
  end
  begin
     id 5 
     name ltoes
     direction 1.53537e-011 -4.21894e-011 1   
     length 1.10023   
     axis -90 7.62852e-016 20   XYZ
    dof rx
    limits (-90.0 20.0)
  end
  begin
     id 6 
     name rhipjoint
     direction -0.513884 -0.783789 0.348708   
     length 2.29716  
     axis 0 0 0  XYZ 
  end
  begin
     id 7 
     name rfemur
     direction -0.34202 -0.939693 0   
     length 7.59573   
     axis 0 0 -20   XYZ
    dof rx ry rz
    limits (-160.0 20.0)
           (-70.0 70.0)
           (-70.0 60.0)
  end
  begin
     id 8 
     name rtibia
     direction -0.34202 -0.939693 0   
     length 7.66402   
     axis 0 0 -20   XYZ
    dof rx
    limits (-10.0 170.0)
 end
 begin
     id 9 
     name rfoot
     direction -0.137793 -0.378584 0.915253   
     length 2.27056  
     axis -90 -7.62852e-016 -20   XYZ
    dof rx rz
    limits (-45.0 90.0)
           (-20.0 70.0)
  end
  begin
     id 10 
     name rtoes
     direction -1.53493e-011 -4.22159e-011 1   
     length 1.11766   
     axis -90 -7.62852e-016 -20   XYZ
    dof rx
    limits (-90.0 20.0)
  end
  begin
     id 11 
     name lowerback
     direction -0.00732775 0.998356 -0.05685   
     length 2.16513   
     axis 0 0 0   XYZ
    dof rx ry rz
    limits (-20.0 45.0)
           (-30.0 30.0)
           (-30.0 30.0)
  end
  begin
     id 12 
     name upperback
     direction 0.0218081 0.999627 -0.0164647   
     length 2.16755   
     axis 0 0 0   XYZ
    dof rx ry rz
    limits (-20.0 45.0)
           (-30.0 30.0)
           (-30.0 30.0)
  end
  begin
     id 13 
     name thorax
     direction 0.02365 0.999661 0.0108914   
     length 2.16932   
     axis 0 0 0   XYZ
    dof rx ry rz
    limits (-20.0 45.0)
           (-30.0 30.0)
           (-30.0 30.0)
  end
  begin
     id 14 
     name lowerneck
     direction -0.0523929 0.978385 0.200044   
     length 1.63877   
     axis 0 0 0   XYZ
    dof rx ry rz
    limits (-20.0 45.0)
           (-30.0 30.0)
           (-30.0 30.0)
  end
  begin
     id 15 
     name upperneck
     direction 0.0448674 0.981321 -0.187074   
     length 1.69014   
     axis 0 0 0   XYZ
    dof rx ry rz
    limits (-20.0 45.0)
           (-30.0 30.0)
           (-30.0 30.0)
  end
  begin
     id 16
     name head
     direction 0.0199089 0.996118 -0.0857429  
     length 1.70094  
     axis 0 0 0   XYZ
    dof rx ry rz
    limits (-20.0 45.0)
           (-30.0 30.0)
           (-30.0 30.0)
  end
  begin
     id 17 
     name lclavicle
     direction 0.940366 0.30191 -0.156722  
     length 3.37521  
     axis 0 0 0   XYZ
    dof ry rz
    limits (-20.0 10.0)
           (0.0 20.0)
  end
  begin
     id 18 
     name lhumerus
     direction 1 -4.4897e-011 -1.7911e-027   
     length 5.25287   
     axis 180 -30 -90   XYZ
    dof rx ry rz
    limits (-60.0 90.0)
           (-90.0 90.0)
           (-90.0 90.0)
  end
  begin
     id 19
     name lradius
     direction 1 -4.48951e-011 1.04424e-027   
     length 3.51014   
     axis 180 -30 -90   XYZ
    dof rx
    limits (-10.0 170.0)
  end
  begin
     id 20
     name lwrist
     direction 1 -4.48997e-011 -9.5942e-028   
     length 1.75507   
     axis 8.48502e-016 90 90   XYZ
    dof ry
    limits (-180.0 0.0)
 end
  begin
     id 21 
     name lhand
     direction 1 -4.48831e-011 -1.90777e-027   
     length 0.706179   
     axis 1.22306e-015 90 90   XYZ
    dof rx rz
    limits (-90.0 90.0)
           (-45.0 45.0)
  end
  begin
     id 22 
     name lfingers
     direction 1 -4.49108e-011 -3.85244e-027   
     length 0.569339   
     axis 2.44611e-015 90 90   XYZ
    dof rx
    limits (0.0 90.0)
  end
  begin
     id 23
     name lthumb
     direction 0.707107 -6.34953e-011 0.707107   
     length 0.817461   
     axis -90 45 -1.62303e-014   XYZ
    dof rx rz
    limits (-45.0 45.0)
           (-45.0 45.0)
  end
  begin
     id 24 
     name rclavicle
     direction -0.905329 0.382405 -0.184787   
     length 3.30787  
     axis 0 0 0   XYZ 
    dof ry rz
    limits (-10.0 20.0)
           (-20.0 0.0)
  end
  begin
     id 25 
     name rhumerus
     direction -1 -4.48953e-011 -9.15316e-029  
     length 5.28721   
     axis 180 30 90   XYZ
    dof rx ry rz
    limits (-90.0 60.0)
           (-90.0 90.0)
           (-90.0 90.0)
  end
  begin
     id 26 
     name rradius
     direction -1 -4.48987e-011 9.37824e-028   
     length 3.50544   
     axis 180 30 90   XYZ
    dof rx
    limits (-10.0 170.0)
  end
  begin
     id 27 
     name rwrist
     direction -1 -4.48967e-011 -9.58414e-028   
     length 1.75272   
     axis 8.48502e-016 -90 -90   XYZ
    dof ry
    limits (-180.0 0.0)
  end
  begin
     id 28
     name rhand
     direction -1 -4.48904e-011 -1.91266e-027   
     length 0.884996   
     axis 1.22306e-015 -90 -90   XYZ
    dof rx rz
    limits (-90.0 90.0)
           (-45.0 45.0)
  end
  begin
     id 29
     name rfingers
     direction -1 -4.4909e-011 -3.85015e-027   
     length 0.713507   
     axis 2.44611e-015 -90 -90   XYZ
    dof rx
    limits (0.0 90.0)
  end
  begin
     id 30
     name rthumb
     direction -0.707107 -6.34853e-011 0.707107   
     length 1.02446   
     axis -90 -45 1.62303e-014   XYZ
    dof rx rz
    limits (-45.0 45.0)
           (-45.0 45.0)
  end
:hierarchy
  begin
    root lhipjoint rhipjoint lowerback
    lhipjoint lfemur
    lfemur ltibia
    ltibia lfoot
    lfoot ltoes
    rhipjoint rfemur
    rfemur rtibia
    rtibia rfoot
    rfoot rtoes
    lowerback upperback
    upperback thorax
    thorax lowerneck lclavicle rclavicle
    lowerneck upperneck
    upperneck head
    lclavicle lhumerus
    lhumerus lradius
    lradius lwrist
    lwrist lhand lthumb
    lhand lfingers
    rclavicle rhumerus
    rhumerus rradius
    rradius rwrist
    rwrist rhand rthumb
    rhand rfingers
  end

#!OML:ASF F:\twosubjects\two\Thursday\Session 1\justin.ASF
:FULLY-SPECIFIED
:DEGREES
313
root 8.98039 14.1297 -12.7929 23.9639 18.2454 13.006
lowerback 34.0642 2.97946 9.55971
upperback 0.11306 9.3523 8.72001
thorax -17.6368 3.56008 0.399839
lowerneck -20.2651 -9.73484 -14.887
upperneck 18.4965 -7.82606 -4.16887
head 9.72918 -5.14307 -0.27516
rclavicle 9.54166e-014 -2.8625e-014
rhumerus 54.3306 -19.9892 -97.177
rradius 93.3279
rwrist -63.1761
rhand -29.1413 0.346107
rfingers 7.12502
rthumb -2.48819 -29.6191
lclavicle 9.54166e-014 -2.8625e-014
lhumerus 22.5871 -54.8395 84.0595
lradius 73.7006
lwrist -7.77982
lhand -16.1971 66.7438
lfingers 7.12502
lthumb 10.01 -96.4858
rfemur -63.9273 -30.3253 -12.4777
rtibia 65.4953
rfoot -10.0159 -1.6357
rtoes -33.8072
lfemur -44.5605 20.0686 -9.39125
ltibia 65.2945
lfoot -25.2619 -1.56177
ltoes -30.6578
314
root 8.98013 14.1399 -12.7918 23.9506 18.1563 13.0298
lowerback 34.0353 3.11747 9.70887
upperback 0.126022 9.57468 8.70284
thorax -17.5716 3.64223 0.210834
lowerneck -20.5509 -9.81503 -14.7103
upperneck 18.6253 -7.89161 -4.33714
head 9.81326 -5.18788 -0.386824
rclavicle -6.36111e-014 -6.36111e-014
rhumerus 54.5895 -20.5231 -97.3138
rradius 93.2322
rwrist -63.6871
rhand -28.6122 0.617595
rfingers 7.12502
rthumb -1.97716 -29.353
lclavicle -6.36111e-014 -6.36111e-014
lhumerus 22.9 -55.1399 84.0591
lradius 73.4743
lwrist -7.63369
lhand -15.097 66.404
lfingers 7.12502
lthumb 11.0712 -96.092
rfemur -63.8503 -30.1586 -12.593
rtibia 65.462
rfoot -10.1114 -1.71733
rtoes -33.2451
lfemur -44.4649 20.148 -9.45278
ltibia 65.2374
lfoot -25.3761 -1.52442
ltoes -30.8622
315
root 8.98054 14.14 -12.7909 23.9796 18.0494 12.9934
lowerback 33.9868 3.29139 9.9509
upperback 0.137222 9.85816 8.60866
thorax -17.4606 3.74042 -0.132733
lowerneck -21.1983 -9.91307 -14.1896
upperneck 18.8754 -7.93527 -4.8591
head 9.9724 -5.24733 -0.689079
rclavicle 1.90833e-014 -2.8625e-014
rhumerus 54.8982 -21.1826 -97.4715
rradius 93.1754
rwrist -63.8276
rhand -28.4122 0.710628
rfingers 7.12502
rthumb -1.78399 -29.2617
lclavicle 1.90833e-014 -2.8625e-014
lhumerus 23.4124 -55.661 83.7476
lradius 73.404
lwrist -7.37258
lhand -16.0084 66.4807
lfingers 7.12502
lthumb 10.1921 -96.2138
rfemur -63.886 -30.0202 -12.5885
rtibia 65.4395
rfoot -10.1322 -1.81383
rtoes -33.217
lfemur -44.4553 20.3062 -9.47951
ltibia 65.2171
lfoot -25.5198 -1.50637
ltoes -31.3452
316
root 8.97948 14.1308 -12.7953 24.108 17.996 12.926
lowerback 33.8266 3.09723 9.68618
upperback -0.122317 9.61285 8.96383
thorax -17.8558 3.65813 0.494217
lowerneck -19.7409 -9.51759 -14.7625
upperneck 18.1081 -7.52343 -4.92008
head 9.45564 -5.05724 -0.470424
rclavicle -1.90833e-014 -5.08889e-014
rhumerus 54.0898 -20.2172 -97.3314
rradius 93.0357
rwrist -63.9801
rhand -28.7992 0.755136
rfingers 7.12502
rthumb -2.15778 -29.2137
lclavicle -1.90833e-014 -5.08889e-014
lhumerus 21.3756 -54.5837 85.4908
lradius 73.4096
lwrist -7.49681
lhand -18.7744 66.2236
lfingers 7.12502
lthumb 7.52292 -96.0699
rfemur -64.1549 -30.137 -12.3801
rtibia 65.4
rfoot -10.0571 -1.71119
rtoes -33.3949
lfemur -44.6452 20.4427 -9.4902
ltibia 65.2215
lfoot -25.5545 -1.41103
ltoes -31.7895
317
root 8.98047 14.1396 -12.7981 24.1704 17.9771 12.8991
lowerback 33.6315 3.17236 10.1713
upperback 0.0384919 9.76409 8.66356
thorax -17.4007 3.69279 -0.124396
lowerneck -20.6839 -9.93974 -14.4718
upperneck 18.3198 -8.04045 -4.75203
head 9.70446 -5.27593 -0.585814
rclavicle -3.81667e-014 -2.54444e-014
rhumerus 54.9586 -20.8051 -98.0027
rradius 92.9274
rwrist -64.2208
rhand -29.7815 0.712205
rfingers 7.12502
rthumb -3.10641 -29.2449
lclavicle -3.81667e-014 -2.54444e-014
lhumerus 22.5378 -55.18 84.4056
lradius 73.4021
lwrist -7.36301
lhand -14.7372 66.8955
lfingers 7.12502
lthumb 11.4182 -96.5646
rfemur -64.1839 -30.151 -12.3258
rtibia 65.3016
rfoot -10.021 -1.66601
rtoes -33.1823
lfemur -44.6925 20.4772 -9.52985
ltibia 65.1796
lfoot -25.523 -1.33397
ltoes -32.2327
318
root 8.98209 14.1434 -12.7974 24.2286 17.9491 12.9905
lowerback 33.5211 3.08113 10.0999
upperback -0.0616278 9.64902 8.78605
thorax -17.5225 3.65095 0.0969735
lowerneck -20.307 -9.83351 -14.8828
upperneck 18.2603 -7.86401 -4.64576
head 9.63757 -5.20465 -0.444168
rclavicle 2.22639e-014 8.90555e-014
rhumerus 54.7265 -20.4485 -98.0456
rradius 92.8009
rwrist -64.8469
rhand -29.9679 1.13818
rfingers 7.12502
rthumb -3.28648 -28.8162
lclavicle 2.22639e-014 8.90555e-014
lhumerus 21.7295 -54.709 85.1402
lradius 73.3392
lwrist -7.3787
lhand -14.3907 66.2404
lfingers 7.12502
lthumb 11.7524 -95.8907
rfemur -64.1589 -30.2187 -12.4229
rtibia 65.2179
rfoot -10.0903 -1.51704
rtoes -32.99
lfemur -44.7005 20.446 -9.6514
ltibia 65.1576
lfoot -25.6036 -1.02492
ltoes -33.0504
319
root 8.98166 14.1335 -12.7966 24.2817 17.9232 13.0775
lowerback 33.5036 3.14451 10.1815
upperback -0.171421 9.77724 8.77623
thorax -17.6303 3.68789 -0.0129138
lowerneck -20.3711 -9.80625 -14.8283
upperneck 18.3931 -7.79082 -4.78508
head 9.68646 -5.18937 -0.496246
rclavicle 6.36111e-015 -1.90833e-014
rhumerus 54.6104 -20.6977 -97.9223
rradius 92.9717
rwrist -65.8871
rhand -31.3111 0.917297
rfingers 7.12502
rthumb -4.58357 -29.0131
lclavicle 6.36111e-015 -1.90833e-014
lhumerus 21.4072 -54.842 85.4981
lradius 73.3415
lwrist -7.23194
lhand -14.62 66.2335
lfingers 7.12502
lthumb 11.5312 -95.8963
rfemur -64.2609 -30.4713 -12.3863
rtibia 65.1714
rfoot -10.1438 -1.17775
rtoes -33.6358
lfemur -44.7282 20.4345 -9.72548
ltibia 65.1548
lfoot -25.8024 -0.836259
ltoes -33.5705
320
root 8.98092 14.1287 -12.7968 24.2485 17.9007 13.0691
lowerback 33.5379 3.24599 10.385
upperback -0.163495 9.97849 8.73443
thorax -17.5805 3.75325 -0.247836
lowerneck -20.8559 -9.86472 -14.473
upperneck 18.6282 -7.81751 -5.04114
head 9.82897 -5.22129 -0.670534
rclavicle -1.27222e-014 -4.13472e-014
rhumerus 54.8433 -21.1171 -98.012
rradius 92.7659
rwrist -65.7345
rhand -33.0073 0.668384
rfingers 7.12502
rthumb -6.22123 -29.2203
lclavicle -1.27222e-014 -4.13472e-014
lhumerus 21.6738 -55.18 85.3253
lradius 73.3534
lwrist -7.12382
lhand -15.0051 66.5739
lfingers 7.12502
lthumb 11.1599 -96.2571
rfemur -64.2587 -30.5537 -12.3412
rtibia 65.1256
rfoot -10.0597 -0.996031
rtoes -34.398
lfemur -44.6841 20.4735 -9.69512
ltibia 65.1443
lfoot -25.9705 -0.837591
ltoes -33.9057
321
root 8.97988 14.1259 -12.7942 24.2182 17.8001 13.1523
lowerback 33.5245 3.35028 10.4243
upperback -0.0713347 10.0924 8.67318
thorax -17.4325 3.80484 -0.378151
lowerneck -21.4447 -9.93286 -14.1042
upperneck 18.7893 -7.8675 -5.22577
head 9.96476 -5.25269 -0.828868
rclavicle -2.8625e-014 -7.63333e-014
rhumerus 55.0806 -21.2652 -98.1439
rradius 92.6981
rwrist -65.8112
rhand -33.9039 1.25117
rfingers 7.12502
rthumb -7.08683 -28.6102
lclavicle -2.8625e-014 -7.63333e-014
lhumerus 22.1754 -55.4045 84.8863
lradius 73.3123
lwrist -7.08668
lhand -15.0244 66.7201
lfingers 7.12502
lthumb 11.1412 -96.4043
rfemur -64.2006 -30.5063 -12.5047
rtibia 65.1026
rfoot -10.0161 -0.901836
rtoes -34.3053
lfemur -44.578 20.5305 -9.77516
ltibia 65.1207
lfoot -26.0781 -0.709024
ltoes -34.0323
322
root 8.97571 14.1237 -12.7905 24.2067 17.6475 13.2561
lowerback 33.4908 3.28833 9.99349
upperback -0.141378 9.92367 8.96534
thorax -17.6646 3.77498 0.225288
lowerneck -20.8115 -9.72503 -14.6627
upperneck 18.3774 -7.57895 -5.09018
head 9.73 -5.1193 -0.612986
rclavicle -3.18055e-015 -6.36111e-015
rhumerus 54.5566 -20.4822 -97.9856
rradius 92.3924
rwrist -65.5212
rhand -33.3869 2.37773
rfingers 7.12502
rthumb -6.58772 -27.4998
lclavicle -3.18055e-015 -6.36111e-015
lhumerus 21.0444 -54.5577 85.8959
lradius 73.2518
lwrist -7.16331
lhand -14.9155 66.455
lfingers 7.12502
lthumb 11.2462 -96.1336
rfemur -64.1657 -30.4116 -12.7027
rtibia 65.0891
rfoot -10.0727 -0.73735
rtoes -34.0095
lfemur -44.4251 20.6224 -9.8899
ltibia 65.0485
lfoot -26.0998 -0.780543
ltoes -33.7236
323
root 8.97322 14.1245 -12.7876 24.1704 17.5124 13.284
lowerback 33.5075 3.45507 10.0387
upperback -0.0830192 10.1333 8.9132
thorax -17.5718 3.86074 0.0563412
lowerneck -21.3378 -9.98329 -14.58
upperneck 18.4424 -7.88073 -4.99018
head 9.85437 -5.2495 -0.666035
rclavicle -6.36111e-014 -4.45278e-014
rhumerus 54.944 -20.8646 -98.1532
rradius 92.1694
rwrist -65.9833
rhand -33.977 2.54834
rfingers 7.12502
rthumb -7.15738 -27.3106
lclavicle -6.36111e-014 -4.45278e-014
lhumerus 21.4602 -54.9206 85.6117
lradius 73.2214
lwrist -6.92023
lhand -13.3498 66.7354
lfingers 7.12502
lthumb 12.756 -96.3258
rfemur -64.1161 -30.2528 -12.8128
rtibia 65.0801
rfoot -10.2239 -0.621439
rtoes -34.1991
lfemur -44.2724 20.7366 -9.92465
ltibia 64.9638
lfoot -26.2393 -0.868601
ltoes -33.7864
